<mxfile host="Electron" agent="Mozilla/5.0 (Windows NT 10.0; Win64; x64) AppleWebKit/537.36 (KHTML, like Gecko) draw.io/28.1.2 Chrome/138.0.7204.243 Electron/37.4.0 Safari/537.36" version="28.1.2">
  <diagram name="Page-1" id="xizByHR0Ey1jSHyjLwqC">
    <mxGraphModel dx="2424" dy="985" grid="1" gridSize="10" guides="1" tooltips="1" connect="1" arrows="1" fold="1" page="1" pageScale="1" pageWidth="827" pageHeight="1169" math="0" shadow="0">
      <root>
        <mxCell id="0" />
        <mxCell id="1" parent="0" />
        <mxCell id="YxUwKGnxh4JJusi9F-n6-2" value="" style="shape=image;verticalLabelPosition=bottom;labelBackgroundColor=default;verticalAlign=top;aspect=fixed;imageAspect=0;image=data:image/png,iVBORw0KGgoAAAANSUhEUgAAAfkAAADACAIAAACI1o1iAAAAAXNSR0IArs4c6QAAIABJREFUeAHtnXt4FNX9xr+zs0k2IZALhSQkXAIoEbFthMSHUkSwSpHrUwuJ2FoFwQeopSJaUqDBIPQhFNpqQUARAigVtGhbrtZeuPaBlIsWRLRJSFEoSBITyD27P+v5MR33lpnZnT1zdt/9Q8+ePZf3fL7nvJk9O3MgF14gAAIgAALhToDCfYAYHwiAAAiAgAtej0kAAiAAAuFPAF4f/jHGCEEABEAAXo85AAIgAALhTwBeH/4xxghBAARAAF6POQACIAAC4U8AXh/+McYIQQAEQABejzkAAiAAAuFPAF4f/jHGCEEABEAAXo85AAIgAALhT0AMr//BD35APl4NDQ0co1RWVrZu3bpHH330q1/9qizLRLR48WJPPT60/3/2xo0bPauEJqe8vNy/tr/+9a+hUeLZi0a2rOLhw4fHjRv3la98xeFw3HLLLUVFRSGeGLrUKoN98cUXGf+pU6cqmSFIOJ3OAwcOzJ0794477khISIiKikpLS/vOd77z5z//2Wvv3PF6qrLy1PVU63K5uJuYSF5/0003DfF4NTU1eSUbmszZs2e7eaVXr/dQ/d+M/v37s7pnz54NjVrPXi5evOhVW+/evYnI4XDU1NR41gpNjka2Lpdry5Yt7A9tenp6dnZ2VFQUEeXk5Fy/fj00Ul0ul3a1iqTLly8nJydz8fo//elPrF+bzXbzzTdnZ2fHx8eznAULFigKWcIKeN0kuVwuK09dT7WK13M0MZG8fsOGDV4hcsxcvHjxmDFjioqKdu/eff/99/u6rveqcP78+USUm5vr9VO+mQ8++CARTZo0iaMMjWzLy8tjYmKIqLi42Ol0ulyuioqKfv36EdGsWbNCpl+jWrWeBx980GazjR49mohCfF3/9ttv9+3bd/Xq1VVVVUxSU1NTQUEBs/s//OEPik6L4FX0tJuwwtT1KpJd13M0MXi917gYyWSx9Hpd79mc0+ns1asXET3//POen/LNqaur69ChAxGp1zxfSX7Yzpw5k4juvfdetcJDhw4RUVRU1KVLl9T5oUn7UasIePvtt4loxowZhYWFoff6zz77rKWlRRGjJEaNGkVE48aNU3IsiFfR5pmw4NRVRMLrFRT+Etwx+RN34zMtK/xGWdff/vY3ZkZXrlxRMi2SKCkpIaIuXbp4tQMuIn2xdTqdaWlpRPTaa6+5CcvKyiKitWvXuuWH4K0vtUrXDQ0Nn19Wd+3atbq6movXK0rcEitXriSirKwslm9NvG6a1W8tOHUVedxNTKTr+tGjR48fP3748OF5eXnPPfccx61kJX7qRLsrXF142rRpRDR27Fh1pkXS99xzDxE9/vjjFtGj7HV6fmeqqKhg2w4XLlxwUzt16lQimjJlilt+CN62OxPY9l1JScnnYizl9UuXLiWi7OxsRsmaeP1E0IJTV1HLZgVHExPJ69mqVv6blJS0e/duBSX3RLsrXFHY2NiYmJhIRNu2bVMyLZL45JNPbDYbER09etQikvx4PdsJiYmJYTv1asFLliwhoqFDh6ozQ5P2PxPOnDkTHR2tCLOO1zudzuzsbCL64Q9/yEBZE6+vIFpz6ipq2axQ7IslQmliYnh9UVHR0qVLT506VVtbW1dXt2/fvjvuuIOIYmJijh07ptDkm/C/wtXatm/fTkQJCQkhvi9QrcFXevny5UTUr18/XwW45Ptiu23bNiJKSUnxVLV69WoiGjBggOdHZuf4UutyuZxO59ChQ+12+3vvvcdkWMfr165dS0TR0dEfffQR02ZNvL7CZ82pq6jlbmJieL3CS0k0NTXl5uYS0YgRI5RMvgk/K9xN2Pjx44no0Ucfdcu3wtuvfe1rRPTss89aQYyiwRfbTZs2EVH37t2Vkkpi/fr1RNSnTx8lJ2QJX2pdLhe7oX7u3LmKGIt4/T/+8Q+Hw8FuZ1K0WROvIs8tYc2p6yZS/TbEJiaq17tcrr179xKRzWZT7htTcwx92s8KV4v59NNP2Q3g+/fvV+dbIf3uu+8SkSRJFRUVVtCjaPDF1poXnr7UshvqMzIy6urqlKFZwevLysrYT9yTJ09W74ZZE6+CTp2w7NRVi/RMh9LEBPb62tpatudVWlrqCTH0Ob5WuJuSVatWEVGvXr3Ui8qtDK+3Tz31FBENGzaMlwBf/fpia80NZV9qH374YSLavn27epjcvf7ixYt9+vQhotGjRzc3N6u1WROvWqGStuzUVRR6TYTSxAT2+oaGBub1f//7371yDHGmrxXuJmPw4MFE5Pl0olux0L9ta2vLyMggopdeein0vfvv0Rdba94o4kst22RI+fKLPcoQGxvLsv1zCPqnV69eHTBgAPsDX19f79a+NfG6iXS5XFaeup5q1TmhNDGBvb60tJR5vef9dmqaIUv7WuFqAR999BHTzPFcBLUedZo9N8/3XAS1HnXaF1un05mamirK/fXM69kE8PVf9ajNTtfV1bF7HHJycmpraz27syZeT51WnrqeatU5oTQxgb3+gQceUD/3oSbIJe3Lj9Ri2Bd2a56LwPTzPRdBzUqd9sN2xowZfp6bvXjxorqd0KT9qPUUwGsPp7GxccSIEZ/vKd16661Xr171FMZyLIjXU6qVp66nWnVOKE1MAK/ft2/fvHnzysrKFEY1NTWPP/44uzJ69dVXlXy+CS0rvG/fvtY8F6G+vr5jx46WOhdBHU0/bMvKyqKjo72eh/P5CQTqRkKW9qPWUwMXr29tbZ0wYQK7T+mTTz7xVKXkWBCvoo0lLD51mUgrmJgAXr9jxw5m6+np6Tk5OV//+tfZ2pYkqbCw0C3wIX578ODBzjde7ASuuLi4GxmdKysr1XoOHz5s2XMRXn31Vaudi6CdbUlJCXv+S33O5cCBA69du6bmb2pau1o3GVy8noWbiLweu/jd735XLdIKeNV63NIWnLpuCl0ulxVMTACvr6ysnD9//ogRI3r06BEbG+twODIzMx966CEr/CT7l7/8xdfGKxGVl5ero86+DlvzXAR26JWlzkXQxfbQoUNjxoxJTk6OiYn5/JDLRYsWhfg5NV1q1bOCi9dv2LDBz7zt2bOnWqHL5eKO102P+q0Fp65aHktbwcQE8HpPcMgBARAAARDQRQBerwsXCoMACICAkATg9UKGDaJBAARAQBcBeL0uXCgMAiAAAkISgNcLGTaIBgEQAAFdBOD1unChMAiAAAgISQBeL2TYIBoEQAAEdBGA1+vChcIgAAIgICQBeL2QYYNoEAABENBFAF6vCxcKgwAIgICQBOD1QoYNokEABEBAFwF4vS5cKAwCIAACQhKA1wsZNogGARAAAV0E4PW6cKEwCIAACAhJAF4vZNggGgRAAAR0EYDX68KFwiAAAiAgJAF4vZBhg2gQAAEQ0EUAXq8LFwqDAAiAgJAE4PVChg2iQQAEQEAXAXi9LlwoDAIgAAJCEoDXCxk2iAYBEAABXQTg9bpwoTAIgAAICEkAXi9k2CAaBEAABHQRgNfrwoXCIAACICAkAXi9kGGDaBAAARDQRQBerwsXCoMACICAkATg9UKGDaJBAARAQBcBeL0uXCgMAiAAAkISgNcLGTaIBgEQAAFdBOD1unChMAiAAAgISQBeL2TYIll0aWnpI488kpKS4nA4Onbs2L9//xUrVly9ejWSmQRr7JWVlQsWLMjMzIyPj4+Li8vIyJgzZ865c+eC1X5w27ly5cqyZcuysrI6duwYGxubmpo6bdq0EydOBLeXYLVWW1v7wgsvZGdnJyQkOByOLl265OXl7d+/3+l0BqsL/+3o8/qDBw9OmzatX79+nTp1io6O7tat2+jRo1988cVr16757wafgkDgBP75z38OHDiQiOx2O914SV+8oqOjf/SjHzU3NwfeS2S2UF1dPXHiREmSZFm+gfa//2dvR44cefHiReuQaWxsnDFjRlRUlM1mU6tlEyM3N/fs2bPWUdvW1lZYWBgXF8fmqiKYqc3Kyjpy5EgI1Gr1+uvXr0+aNImpdDgct95666BBg9LS0lhOWlrau+++GwK56CJiCRw5ciQ+Pt7NiZRlQ0SSJH3rW99qaGiIWESGB3758uWsrCw/bO12e3p6ellZmeEugljx+vXrQ4cOdXN59UyQZTkhIaG0tDSInRpuqrW1NT8/Xy3PLW2z2aKjo3ft2mW4C40VNXl9c3PzkCFDiCg1NbWkpKS+vl5p/fTp04899pjdbt+xY4eSiQQIBJfAv/71r8TERD9mxNaPzWbLz88Pbtdh31pTU1NOTk67bO12e58+fWpqavgCcTqdEyZM8GP0bCbIspycnHz+/Hm+al0u15w5cyRJcvN3t7eSJDkcjuPHj5uqVpPXz58/n4hSUlLKy8u9qjlw4MChQ4e8foRMEAicwJQpU9T7Nm5Lxe3t0aNHA+8xclrYvHmzG0Bfb2022/Lly/mSOXDggC95bvl2u33WrFl81ZaXl7dr9Ey2LMujRo0yVW37Xl9TU9OxY0ci2rp1q6lS0DgIeCVQVVUVExPjtpJ9vbXb7Q8//LDXdpDplUBubm67l8kK7R49eny+++y1ndBk5ufna/+rHxcXV1tbGxphXnspKCho9wuTwlaSJFN3ydr3+ldeeYWIunTp0tLS4nU8yAQBUwn8+te/1nhxxJZNdHR0dXW1qZLCpvFTp04pXqMxsWfPHl7Dv3z5snajZz/hrFmzhpfa5ubmpKQkjVTZz+Dz5s0zT237Xj9r1iwimjBhgnki0DII+CGgawOHLS1s4/jhqf5o06ZN2s2I+VFxcbG6hVCm9+/fr0ttVFTUzJkzQ6lQ3VdlZaUutURk6jZO+14/YcIEInriiSfUw0AaBEJGYNKkSdo3Gdjqeuedd0ImT+iOVq9eres7U1RU1MKFC3kNedeuXbrcU5bl73//+7zUnjlzRpdaIho8eLB5atv3+rvvvpuIFixYYJ4ItAwCfgjgut4PnAA/wnV9gAD9VMd1vR84+AgEvBDAfr0XKEHKwn59kEB6aQb79V6gIAsE/BDAfTh+4AT+Ee7DCZyhrxaEvA+na9euuA/HV0SRbzYBXds4x44dM1tPOLWP++vNi2ZFRYXGn0MscX99dXV1fHw87q83b0Kg5XYJlJWV4bnZdikZK6D9udm+ffsK9Nxs586d8dysekq0/9usy+UqKCjw/9zswYMH8dysGivSQSeg8TycxsbGoHcd9g1qOQ8nIyPD1Cd9tEOur6/HeTjacSklNXl9U1PT4MGD2Xk4mzZtUh8v9cEHH8ycORPn4ShAkTCPgP9zLmfPno1zLg3Dr6mpmTRpkkDnXM6cOdPPOZcffPCBYRRBr9jW1rZo0SJhzrmsq6u7//772e2isbGxAwYMyMnJSU9PZzkZGRnvvfde0BmhQRDwJMDOr09NTY2Nje3UqVP//v1XrlyJ8+s9QRnIqaysXLhwYWZmJttlttlsTz755IcffmigqRBUuXLlSnFxcVZWlqJ2+vTpVj6/fs2aNdnZ2YravLy8AwcOWPT8+v3790+dOvXmm2+Oj49Xzq9fv369+uTLEMQYXYAACJhKgF3Gpaenm9pLsBqHWi0kNe3haGkIZUAABMKGANzTvFDyYguvNy+maBkERCXAy4+M8YJaLdzg9VoooQwIRBYBuKd58ebFFl5vXkzRMgiISoCXHxnjBbVauMHrtVBCGRCILAJwT/PizYstvN68mKJlEBCVAC8/MsYLarVwg9droYQyIBBZBOCe5sWbF1t4vXkxRcsgICoBXn5kjBfUauEGr9dCCWVAILIIwD3NizcvtvB682KKlkFAVAK8/MgYL6jVwg1er4USyoBAZBGAe5oXb15s4fXmxRQtg4CoBHj5kTFeUKuFG7xeCyWUAYHIIgD3NC/evNjC682LKVoGAVEJ8PIjY7ygVgs3eL0WSigDApFFAO5pXrx5sYXXmxdTtAwCohLg5UfGeEGtFm7wei2UUAYEIosA3NO8ePNiC683L6ZoGQREJcDLj4zxglot3OD1WiihDAhEFgG4p3nx5sUWXm9eTNEyCIhKgJcfGeMFtVq4weu1UAr/MqdPn167dm1xcfHzzz+/a9eulpaW8B9zqEZ46dKljRs3rlix4pe//OXWrVtra2tD1bPxfkRxz/r6+jfeeCMhIYGIEhMTz58/b3zM5tdsaWnZuXOnovb99983v8//9aDJ63v27ElffnXo0OG2226bN2/ep59++r/GkBKNQGtr62uvvfbNb36ThVeWZUmSiCgtLe3ZZ5+9fPmyaAOylt5Dhw7l5+fb7XYikmXZZrMRUWxs7IwZM06fPm0trV9WY32vLysrmzt3bqdOndTOJEnS2LFj9+3b53Q6vzwgzu8uXbr0zDPPpKSkqNUS0bBhw15//fW2trYQ6NPh9TfddNOQL16DBw/u1asXE52enl5eXh4Coegi6ASuXbt23333MRtym4JEZLPZunTpcvz48aD3GwkNOp3OZ555hoiY0bvhtX/x2rx5s2VRWNzrd+7cGRsbK8uyG1hlMs+aNau1tdUieI8ePZqcnMz+0rsJZkOYMGFCfX292Wp1eP2GDRvUao4fP96tWzcimjhxojofaSEINDU1DR8+3OtqUaajLMsdO3a0+BWoNWkXFhYqGP0kXnnlFWvqt7LX7927V/kC6outJEnTpk2zwtX9yZMn4+Li/C80m8327W9/2+yNU+Ne73K5Vq1aRURJSUnWnK9Q5YfAwoUL2XaNr9XC8mVZ7tOnT2i+Y/pRK9ZH77zzjn+qyqd2u72srMyCo7Os11dVVXXo0MHrNbJCVUlw/1Pa0tLSvXt3/0bP1EqStGTJElNnQkBe/8c//pGIOnToYKpENB50Ao2NjYmJicqSaDexa9euoGsI4wbHjBnjdevGk7Msy08//bQFUVjW61euXKnlGoVtQt5+++182f7ud7/zDLqvnK5duzY3N5snOCCvX7RoERENHDjQPH1o2QwCW7Zs8TXhPPPtdvt9991nhoywbLOiokKjGTHUCQkJDQ0NVkNhTa9va2vLzMzUhffYsWMc2ba7Teq23F5//XXz1Brx+ra2to8//nj16tWxsbGSJJmqz7yRR3LL48eP1/gtmM1FSZKuXbsWycS0j/1Xv/qVLrZEtHv3bu3th6akNb3+5MmTbubo/63dbv/JT34SGmKevVRVVfmX5/apLMt5eXme7QQrR4fXuykjopycnL179wZLCtoJGYHc3FzPaPrPqaysDJk8oTv66U9/GhUV5R+m26ebNm2y2pCt6fX79u1zQ+f/rd1unzJlCi+2586d8y/P89Nhw4aZp1aH1yv3XA4ZMqRfv34xMTE2m238+PFVVVXm6UPLZhCA15tBlbUJrzePLbw+ELY6vN7tnsvq6uqHHnqIiAYNGmSFe5sCoRBpdbGHY17EsYdjHlvs4QTC1rjXu1yuxsZG9l1vx44dgYhA3RATwG+z5gHX+9tsYmIifpvVGA4Dv82WlpZqbNyMYsL/NquGMnbsWCIqKChQZyJtcQKNjY1JSUme24W+cnDPpa6A4p5LXbh0FcY9l7pwqQsHdF3vcrlGjx5NRI899pi6UaStTwDPUpkXI+3PUkVFReFZKl2BwLNUunCpCwfk9Q0NDeyYhGXLlqkbRdr6BNgZCf7vDsQZCYbjiDMSDKNrt+K+ffu0nJEwffp0K/yOGA5nJFRVVX3ve98joujoaBx/1u4EtWABLWefnThxwoLKrS/J6XQWFRXh7DOTIoWzzwyA1XFdr77nMisrKyYmhk1lt/tzDIhAFV4E2JnGQ4cOZTv1yuVSWlrakiVLcKZxgHE5fPjwAw884HZeQlxc3MyZM8+cORNg46ZWt+b99eohl5eXP/XUU+wseJvNxs6ckSRp3Lhx1jzTuKioyPNM47vuusuKZxqrf7iLiYnp3bv3I488cvLkSXUAkBaUwOnTp9etW7d8+fLf/OY3u3fvts55sILyVMv+z3/+U1JSwk5aT0pKwr9VooYTYJr9WyXPPffcL37xi5dfftniT/wJ8G+VBBgPVAcBELD+lbI6RmKpVSu3fpoXW017ONbHB4UgYHECvFa4MSxiqTU2Rl61eLGF1/OKOPqNLAK8VrgxymKpNTZGXrV4sYXX84o4+o0sArxWuDHKYqk1NkZetXixhdfzijj6jSwCvFa4McpiqTU2Rl61eLGF1/OKOPqNLAK8VrgxymKpNTZGXrV4sYXX84o4+o0sArxWuDHKYqk1NkZetXixhdfzijj6jSwCvFa4McpiqTU2Rl61eLGF1/OKOPqNLAK8VrgxymKpNTZGXrV4sYXX84o4+o0sArxWuDHKYqk1NkZetXixhdfzijj6jSwCvFa4McpiqTU2Rl61eLGF1/OKOPqNLAK8VrgxymKpNTZGXrV4sYXX84o4+o0sArxWuDHKYqk1NkZetXixhdfzijj6jSwCvFa4McpiqTU2Rl61eLGF1/OKOPqNLAK8VrgxymKpNTZGXrV4sYXX84o4+o0sArxWuDHKYqk1NkZetXixhdfzijj6jSwCvFa4McpiqTU2Rl61eLGF1/OKOPqNLAK8VrgxymKpNTZGXrV4sYXX84o4+o0sArxWuDHKYqk1NkZetXixhdfzijj6jSwCvFa4McpiqTU2Rl61eLGF1/OKOPqNLAK8VrgxymKpNTZGXrV4sYXXBz/ira2tb7311r333pucnOxwOJKSkoYOHbp169ampqbgd4YWrU3g7Nmzs2fPTk9PlySJiGRZLiwsvHDhgjVVV1ZWLliwIDMzk6m12Wxz5sw5d+6cNdWKpaq2tvaFF17Izs5W2Obl5e3fv9/pdIZmILq9fsCAAUTkcDg+++yz0EgUq5c33nijW7dubFXTjZfNZiOi5OTkl156SazhQK1hAv/+97/vvvtut5lARLYvXpMnT66trTXceNArVldXT5w4UZIkWZZvTNv//p+9HTly5MWLF4PeaYQ02NbWVlhYGBcXJ33xUvDa7XYiysrKOnLkSAhQ6PP6EydOKELXr18fAn1idbFq1SqFj69EYWGhWIOCWgMEzp07l5KSwhaz15kgy/Jtt9129epVA40Hvcrly5ezsrLcXF4t2263p6enl5WVBb3rsG+wtbU1Pz9fDdMtbbPZoqOjd+3aZTYKfV4/Z84cIkpMTCSiu+66y2xxYrX/5ptvsm9nbrH0fLt27Vqxhga1ughcvXq1Z8+efoyeTQlZlr/xjW+0tLToajzohZuamnJycvwYPVNrt9v79OlTU1MTdAHh3eCcOXPatQVJkhwOx/Hjx01FocPrW1tb09LSiGjLli2yLEuSdP78eVPFCdR4W1tbr1692g0qWzYJCQn19fUCjQ5SdRFYvHgx27Xz/DPvmbN9+3ZdjQe98ObNmz1Vec2x2WzLly8PuoAwbrC8vFyjJ8iyPGrUKFNR6PD6PXv2EFFqampra+s999xDREuXLjVVnECN79271+vy8JVZUlIi0OggVTuBlpaW1NRUX3F3y5dl+c4779TeuBklc3Nztf9l6tGjx+e7z2bICMs2CwoK2v3CpEwJSZJM3SXT4fWTJ08motmzZ7tcro0bNxLRLbfcEpYRMjCo8ePHt/udXQmqzWYbNGiQgV5QxfoE3nrrLSXQGhPvv/8+r3GdOnVKo0il2J49e3ipFavf5ubmpKQkhVu7CVmW582bZ94YtXp9XV1dXFwcER09etTlctXW1sbGxhJRaWmpeeIEarl79+7txlJdwOFwCDQ6SNVOoKioSPtffTYltm3bpr394JbctGmTelq2m5Zlubi4OLgawrW1ysrKdnm6FTB1G0er17ML+b59+yqBmThxonKZr2RGbELXH3AWYHwXDsvZ8vTTT0dFRbmtYf9vOd7Stnr1ao0bymwIUVFRCxcuDMvABX1QZ86c8R93z08HDx4cdBlKg1q9nt0p/LOf/Uyp+eabbxJR165dud9IoEjimMB1PUf4luoa1/WWCgdHMUJe11+4cIH9enP27FmFXVNTE7uY3blzp5IZsQns10ds6N0GbmC/Xr2s3Foz+y32680jLOR+/bJly4jo9ttvd+Myffp0IsrPz3fLj8C3uA8nAoPudci4D8crlsjMFO8+HHYugufuEsuJjY3FeQl6769vaGiIzNkfCaPG/fWREGUtY6yoqND4c4gl7q8/fvw4EUmSlOLtFR0dTUQvv/yylpGHdxntz82uW7cuvFFE+OjC9bnZvn374rlZvXNbpOdmn3jiCSIaNmyY10EWFBQQ0fDhw71+GmmZ7Dwc/3/JcR5OJMyKc+fOpaam+rn5UrjzcDIyMkx90idcZ4Uw5+G0trayhwB9HdB4+vRpdtVfWVkZrtHSNS6v51yyZ+c6d+7sC6OuLlBYCAIXLlxgd6+5Ob41z7msqamZNGkSzrk0Y2q1tbUtWrTI6udc7t69m51g7Oe7W3Z2NhH9/Oc/NwOTiG22trb+/ve/HzlyZOfOndn59Xfeeedvf/tbnF8vYjQD1Hz27Nkf//jHGRkZcXFx8fHxvXv3XrRo0ccffxxgsyZVr6ysXLhwYWZmZnx8fIcOHbp37/7kk09++OGHJnUXUc3W1tauWbMmOzs7MTHR4XB07do1Ly/vwIEDVjm/np2LMHHiRD9RWbFiBRH179/fTxl8BAIgAAIgwJGA1mepOEpE1yAAAiAAAgESgNcHCBDVQQAEQEAAAvB6AYIEiSAAAiAQIAF4fYAAUR0EQAAEBCAArxcgSJAIAiAAAgESgNcHCBDVQQAEQEAAAvB6AYIEiSAAAiAQIAF4fYAAUR0EQAAEBCAArxcgSJAIAiAAAgESgNcHCBDVQQAEQEAAAvB6AYIEiSAAAiAQIAF4fYAAUR0EQAAEBCAArxcgSJAIAiAAAgESgNcHCBDVQQAEQEAAAvB6AYIEiSAAAiAQIAF4fYAAUR0EQAAEBCAArxcgSJAIAiAAAgESgNcHCBDVQQAEQEAAAvB6AYIEiSAAAiAQIAFxEpRkAAABBUlEQVR4fYAAUR0EQAAEBCAArxcgSJAIAiAAAgESgNcHCBDVQQAEQEAAAvB6AYIEiSAAAiAQIAF4fYAAUR0EQAAEBCAArxcgSJAIAiAAAgESgNcHCBDVQQAEQEAAAvB6AYIEiSAAAiAQIAF4fYAAUR0EQAAEBCAArxcgSJAIAiAAAgESgNcHCBDVQQAEQEAAAvB6AYIEiSAAAiAQIAF4fYAAUR0EQAAEBCAArxcgSJAIAiAAAgESgNcHCBDVQQAEQEAAAvB6AYIEiSAAAiAQIAF4fYAAUR0EQAAEBCAArxcgSJAIAiAAAgESgNcHCBDVQQAEQEAAAvB6AYIEiSAAAiAQIIH/A2l+r/ZQxHv+AAAAAElFTkSuQmCC;" vertex="1" parent="1">
          <mxGeometry x="-120" y="180" width="505" height="192" as="geometry" />
        </mxCell>
        <mxCell id="YxUwKGnxh4JJusi9F-n6-3" value="" style="shape=image;verticalLabelPosition=bottom;labelBackgroundColor=default;verticalAlign=top;aspect=fixed;imageAspect=0;image=data:image/png,iVBORw0KGgoAAAANSUhEUgAAAaIAAAFICAIAAACdtm3cAAAAAXNSR0IArs4c6QAAIABJREFUeAHtfXdAFFf39qEpYKHYBSkBEYOIil2JvUKwxxY19hoL9hZsMa9GE6PRiBqMkc/Ya1SsBAtWVKKvIWpQbIioiDRx2d2P/E4y77rLLrs7ZWd2D3/olHtPec7Ms3duOReU9EcIEAKEgFkjAGbtHTlHCBAChICSaI4eAkKAEDBzBIjmzDzA5B4hQAgQzdEzQAgQAmaOANGcmQeY3CMECAGiOXoGCAFCwMwRIJoz8wCTe4QAIUA0R88AIUAImDkCRHNmHmByjxAgBIjm6BkgBAgBM0eAaM7MA0zuEQKEANEcPQOEACFg5ggQzZl5gMk9QoAQIJqjZ4AQIATMHAGiOTMPMLlHCBACRHP0DBAChICZI0A0Z+YBJvcIAUKAaI6eAUKAEDBzBIjmzDzA5B4hQAgQzdEzQAgQAmaOANGcmQeY3CMECAGiOXoGCAFCwMwRIJoz8wCTe4QAIUA0R88AIUAImDkCRHNmHmByjxAgBIjm6BkgBAgBM0eAaM7MA0zuEQKEANEcPQOEACFg5ggQzZl5gMk9QoAQIJqjZ4AQIATMHAGiOTMPMLlHCBACRHP0DBAChICZI0A0Z+YBJvcIAUKAF5pLTU1NpD9CgBAgBAxHIDU1lXNe5p7mUlNTHR0dgf4IAUKAEDAcAUdHR86ZjnuaS0xMBICYmBjDeZxqEAKEgEUjEBMTAwCJiYncNuj4ojnODeXWbZJGCBACIkQAG0mcswfRnAhjTSYRAhaKANGchQae3CYELAcBojnLiTV5SghYKAJEcxYaeHKbELAcBIjmLCfW5CkhYKEIEM1ZaODJbULAchAgmrOcWJOnhICFIkA0Z6GBJ7cJActBgGjOcmJNnhICFooA0ZyFBp7cJgQsBwGiOcuJNXlKCFgoAkRzFhp4cpsQsBwEiOYsJ9bkKSFgoQgQzVlo4MltQsByECCas5xYk6eEgIUiQDRnoYEntwkBy0GAaM5yYk2eEgIWigDRnIUGntwmBCwHAaI5y4k1eUoIWCgCRHMWGnhymxCwHASI5iwn1uQpIWChCBDNWWjgyW1CwHIQIJqznFiTp4SAhSJANGehgSe3CQHLQYBoznJiTZ4SAhaKANGchQae3CYELAcBojnLiTV5SghYKAJEcxYaeHKbELAcBIjmLCfW5CkhYKEIEM1ZaODJbULAchAgmrOcWJOnhICFIkA0Z6GBJ7cJActBgGjOcmLNjadv3769d+/e6dOnN2/evHDhwmHDhrVv375JkybBwcFBQUEBAQG1atXy8fHx9PT09fVt3rx5jx49xowZ88UXX6xdu3bXrl3nz5/PzMzkxhT+pcjl8r/++is2Nvbnn3/++uuvp0+fPnjw4M6dO9evX9/T09Pb27tmzZq1a9cODAysX79+o0aNmjVr1r1790mTJq1cuXL37t2XL19OT09XKBT8W0oadCFANKcLHbqnVCqzsrJOnDjx5Zdfdu/evUaNGlZWVsD6r0aNGl27dp07d+6BAwfS0tLEg7NMJktKStq4ceOoUaOaNGlStmxZ1r6Cvb19/fr1R40atXHjxqSkJLlcLh5/LcQSojkLCbRhbubl5R04cGDKlCnBwcHW1tZqr7q9vX2tWrU6dOgwYsSIRYsW/fTTTwcOHDh8+PCxY8dOnToVHx9//vz5S5cuxcfH79q1a+3atZGRkWPGjOnZs2eLFi3c3d3VpAGAp6fn6NGjf/3117y8PMMM5ah0amrq999/36lTJ0dHRzXzSpUqVadOnQ4dOgwcOHDKlCn/+c9/oqOjDx8+fOHChYsXL547d+633347efJkbGzsr7/+umfPnu+//3769Ol9+/Zt1qxZ9erVNX8VnJ2dP/7446+//jopKYkaehwFsAQxRHMlAGRRt/Pz8/fv3z9gwAC1Voy3t3ffvn1XrFgRHx///Plzli9nZmbm2bNn165dO2zYsICAAFUicHR07Nat248//vjs2TO+kZfL5ZcvX54/f35QUJAqtZUrV65t27YzZ87cvn377du3ZTIZG0sKCgru3bu3e/fuGTNmtGnTRg1Yf3//L7744tatW2xUUN0SESCaKxEi8y/w9u3bgwcPfvrpp+XKlWNeeA8PjzFjxvzyyy+PHz/mFYI3b94cOXJk7Nixqg09KyurZs2aRUdH89G+u3v3bkRERLVq1Rhnra2tW7ZsuWzZsps3b/L6USmTya5cubJy5cqwsLDSpUszBnz44YcLFiy4ffs2r1BbrHCiOYFCn5qaam9vDwAhISECqdRDTXp6+vz58ytUqMC8b+7u7hERERcvXmTZZNNDuXoRhUJx7dq1hQsXBgcHM/a4uroWdfynpKSolzb8XC6X//rrr126dGGEly1btlevXlu2bMnIyDBcHtsaWVlZMTEx4eHhpUqVYkxq2rTpnj17CgsL2Urnov4vv/zCGIYHNjY2lSpV6tq168mTJ7nQIJAMojmBgB44cCA+KM7OzgKp1Knmzz//HDVqFNOgqF69+qRJk86fP89rW0anRe/dfPz4cVEvmIeHB4JmZWUVFhYWGxtrnHkvX75csWLFBx98wLy0Xbp0OXjw4Nu3b9/TaqKT169fb9myJTQ01M7ODi309fX94Ycf+GjJGuTizJkzAaB69eot/v2rXbs2GmltbX3o0CGDpJmwMNGcEOAnJiZaWVk5OTlhP9SjR4+E0KpFx/nz57t37870iDVu3HjXrl0iaT6omVxYWHjgwIEOHTow9BQQEHDw4EH9W5qvX7+ePXu2g4MDSnB2do6IiLh7966aIpGcpqWlzZkzx8XFBa2tWLHiggULTNLSREA6d+4MAN98840qPg8fPvT19QWA1q1bq14X8zHRnBDRadOmDQB89dVX2Dw5cuSIEFo1dNy+fVuVMj7++OP4+Hj9KUNDnnAXkpOTJ02aVL58eXz/W7VqdenSJd3qCwoKvvvuO+Z7PCgoaOPGjbm5ubprieFudnb2d9995+Xlhc46OjouXrw4Pz9feNuqVq1a1M1y6tQpNdVLliwBAB8fH7Xroj0lmuM9NL/++isAuLm55eXlYcfQsmXLeNf6voLXr19PmTLF1tYWAEqVKjV8+HAp9nZnZmbOnDmT+dD+5JNP7t27976jf58pFIrt27czn6j+/v4HDhyQBJur+iKTybZv396gQQMkO29v7/379wvpRXp6OqrWbE7OnTsXANq1a6dqsJiPieb4jU5hYWHRIFoRzW3cuFGpVE6bNg0ABg4cyK9WFelyuTw6Orpy5cr4yIaHhxdLDSo1xH6Ympo6ZMgQ/Oi2s7ObOHHi69evGaMTEhIaNWqEzlatWjUqKorljBBGskkOFArFtm3b3Nzc0KNOnTr98ccfwlhy7Ngx7JhTU5ebm+vv7w8AUVFRardEe0o0x29ooqKiAKB27drY+bV582YAqFu3Lr9a/5V+5cqVxo0b4xvi5+d39OjRf+9I/v+kpCTsOQIAd3f32NjY3NzciIgIpL+yZcsuWrQoJydH8n7+nwPZ2dmzZ8/GAVlbW9upU6e+efOGb9eWL18OAJ07d2YUZWRkHD9+vFmzZgAQFhYmzv5cxlrVA6I5VTQ4Ps7JycHejf3796PoS5cu4Wcj300MmUy2cOFCGxsbAChbtuzXX39dUFDAsXsiEHf8+HHm4xTn6wDA4MGDBZhdLLz3d+/eDQsLwx8tHx+fixcv8mrDgAEDUJfav76+vhs3bjRuyJtXg3UIJ5rTAQ7bW5GRkQDQvHlzRlB2djY2N3id+H7//v0WLVrg0/nJJ588ffqUMcD8Dl69eqX6Ho4YMcL8fFT16PDhwzVq1AAAGxubRYsW8dekCggIAIA6der8O5mkRc2aNbF7t2PHjq9evVK1SuTHRHN8BSgtLa1MmTIAcO7cOVUdnp6eAPDLL7+oXuTweN++fU5OTkXzAMqXLx8TE8OhZBGKunjxIjqrynSdO3fmu7FsWihevXrVt29fdLlNmzZ85D7Iz89HRvvzzz9VnU1JSalduzYADBkyRPW6yI+J5vgK0MiRIwEgPDxcTUHXrl0BYM6cOWrX2Z++e/du6tSp+PQ3a9bs/v377GWKWcJXX33FzP4bPXp0SkoKs1zM1dU1NTVVzMaztE2hUBTlhsLf0apVq/72228sBapVv3r1KgA4ODhofpzGxMQAQLly5dSqiPmUaI6X6Ny6dQv7xVRbGarHYWFh3CrOyspq27YtqoiIiHj37h238sUmbcKECehsmTJlmIldcrl8yJAheN3e3v769etiM5tbe/744w/8tLSxsdmwYQOHwjdt2gQAwcHBmjLPnTuHCJt8kYambdquEM1pQ4bVdWyylS9fvorGH85x9/T0ZKXg/crPnj2rX78+jjbs2bPn/ZtmeNatWzd802rUqJGVlaXm4bZt2zB5lK2tbWxsrNpdMzvNyclh1hEuWbKEq4l1n3/+OQAMHTpUE64dO3ZQaw5hAU10WF7hiY9ZWlVs9VOnTgH8nUzxwYMHmgXQEQDQfD81C+tz5d69ez4+PgBQqVKlq1ev6lNFumXkcjkzRSYoKEhbH1xcXBwuvbSysvrpp5+k668+lisUijlz5iDvT5gwQfMzUx8hamVCQkI0l3lhmU6dOgFA79691aqI+ZQn9rBcmlMoFDhzffbs2cUGPi8vD9sa58+fL7aAQRevXbtWpUoVAPD29r5z545BdSVXODc3l5k+0qlTJ93v861bt5gcmUuWLJGcs4Ya/N133yHT9e3bl31KAhzYOXHihKoZT548wVkmDg4O//3vf1VvifyYaI7jAG3duhUAKleurGMCJza+1q9fz1L36dOnMUNcUFCQec8aUSqV6enplSpVwjd5+PDh+kD35MkTV1dXrDJmzBh9qki6zLZt27AN2759ex2PX4k+pqSkIGgNGjTA2SRFuf88PDzw57lSpUpq9FeiQJMXIJrjMgT5+fm4OF83hYWHhwPAuHHj2Og+c+YMru5s1aqV6monNjJFWzc1NRVHFQEgMjJSfzuzs7NxBg8A9OzZU/+KEi157NgxBKply5ZGr/bft28f0hzzr42NTYUKFUJCQv7zn/+8fPlScuAQzUkuZH8bfOvWLWdnZwAIDQ01+mmWiuf5+fmYaMTKysqIdZQymYxZAB8RESEVr4228/Lly5jKpWfPnvxNHjbaPJNUJJozCeyslD569AgniDVr1kwSmYXYeCuXyzH3QVHmn61btxonSi6XMxs+REdHGydEQrXi4uJwAez48eO5GnuVkPuaphLNaWIi6iuZmZl16tQBAH9//xcvXojaVi6M6969O346zZo1i428goICTNNibW2dkJDARpQk6u7YsQPnTi9dulQSBvNqJNEcr/ByLDw/P/+jjz4qyoFTrVq1YmercKzP1OLmzZuHHMfJbOonT57g8n57e3vTJnAWBldm7NXsp9SUiCfRXIkQiaWAQqHAlYzly5dPSkoSi1m82bFt2zbkOH9/f91zR/Q34eLFi8xwodn3aSqVyhkzZuAif2ntUKN/QPUsSTSnJ1CmL7Z+/XoAsLOzO336tOmt4dmCK1euIB8V7ezFbf/jli1bkD0DAwN5dsL04uVy+aeffgoAVapUSU9PN71BJrKAaM5EwBuo9tatW/jBtXLlSgOrSq94ZmYmblJTqlQpPr7NsY0DAH379pUeOgZanJeXh+teu3TpwlWj2EATTF+caM70MSjRgry8vMDAQAAocep/iaIkUQDz01pZWcXFxfFkMLNb6/Hjx3lSIR6xN2/exN/Ib7/9VjxWCWkJ0ZyQaBupa/z48biywiyT4qqBwnTJsRxaVROrdiqXy3GBhJOTk7aFsWpVJH26du1a7PG4du2apB0xzniiOeNwE67WgQMHsC/J7JNtKJXK/Px8/Fx1d3fnG+KzZ88isAMGDOBbl8nlKxQKTOtSq1Yts9kiQ39Uieb0x8oEJdPT03EBwNSpU02gXnCVuIuNlZXVzZs3BVDeo0cPZLrLly8LoM60Kl68eIE7hI0ePdq0lgivnWhOeMwN0Dh06FAACAoKMssNa9SAiI2NRdIRbD+HgoKCsmXLYoeAJXTPnz59GgCsrKz43i5HLbImPyWaM3kItBqQkJCAr/2FCxe0FjKXGzKZDFdiVqhQQUjGYfoEPv/8c3PBUpcfgwcPxrTAFrXclWhO1zNhwnuFhYWYEHjYsGEmNEMw1f369UNOP3v2rGBKUVGbNm2wjZOcnCywauHVPXv2DH9OdCfREd4wXjUSzfEKr/HCceNqJyen58+fGy9FIjVv3ryJHNerVy/hTc7OzsaUVr6+vsJrF14jLgKrXLkyV/mrhXfBUI1Ec4YiJkT53Nzc6tWrF+3tsGLFCiH0mVpHcHAwADg6OpqqC3Ljxo3Is0eOHDE1GLzrf/funZ+fHwDMnTuXd2XiUEA0J444vG/F4sWLAcDLy4t9tuv3BYvxLCkpCSlm8eLFJrQP85d4e3ub0AbBVGPiTAtJYaBUKonmBHu09FWUk5ODM1e3bdumT52UlJQNGzaMGDGibt26uGtisXyBVKLtXxMmsWD2JNM98qCnm2qIMc20EvOqY3Z7ABBbg+7+/fvaoobXjdikVaFQtGzZEgAsIc8o0ZzaSyGKU5yw7uPjo+dY2KRJk9Reg2JpDpP6q/3LZKw0Ve8705QrMS2anm6qhvD58+fMXhAl0pxSqaxatSo2olWFmPw4LS1NLWp4irv/2NvbG5ci/8iRI7gPoXHVTQ6LQQZQa84guHgvXFhY6OvrCwBr1qzRU9nixYvDwsIWLVp09OjRXr16FSXeKZbmipU2d+7covZL48aNi70rwMUWLVoAQJkyZXQ35ZRKpRFuDhw40NraOjQ0FAD0oTmmQSeJvJu4Pesnn3xiXJjkcnnt2rWLmM4SkkEQzRn3kPBVa//+/QDg4uJi3Ioc3HNeT5pTKBReXl4GUSq3bqenp2OG22nTphkkWR83T5w4AQBjx46NjIzUk+aUSiXusFHsbvMGWch34ezsbNza5tChQ0brwi96Dw8Ps1/VSzRn9EPCS0XcBtjoVev6vP+M3fHx8bicOyMjg7ko5AHOlbO1tTV0gLVEN/Pz8319fStXrpyZmWkQzWHhIloUeXphzJpXqVIlNgyVl5eHe0Ju375dyLgLr4toTnjMtWq8fPkyANja2j5+/FhrIZ03Snz/VWuPHDkSAD7++GPVi4Idy2Qy3FTUiLlyJbqJH+NbtmwpcscgmpPJZLhZTLdu3QSDwghFHTp0AAD2KzcQnEaNGpn3zjhEc0Y8Y3xVwUSvgwYNMlpBie8/I/nt27f4gbZz507mopAH69atw5GTtLQ0Q/XqdvP27dulSpUKCQlBsQbRnFKpxI3l7e3tDbVKsPJPnz7F1MrsMw6kp6fj1GjzXlBINCfYw1mCovz8fFxGzqb/W/f7r2rBrl27AMDJyclUWyLg3qnGzVPT4aZCoQgJCbG1tWVynBhKc3fu3EH+PXXqlCpi4jn++uuvAaBWrVqcmIQ/rpMnT+ZEmjiFEM2JJS64htzd3b3EMUcdFut4/9VqYfYxwXKBqGmXy+U4xW/GjBlqt/Q51eEmdqurjmkYSnNKpRKnoXTp0kUfY4Qvg3vOLlmyhBPVnDx4nFjCnxCiOf6wNUzyoEGDAGDSpEmGVXu/tI73X7XgixcvsF/szJkzqtcFO2ambhg3+qHNTZwo5+7unp2dzfhiBM31798fp7kwQsRz8Pvvv2OiAa52yWA+I8w4OxPRnCge4Ldv3zo5OQEAy/wc2t5/NSdxBrKXl5epOp5xtwc3Nzc1w/Q81ebmZ599BgC7du1SlWMEzTGTltl3fqlawsnx9OnTAaBVq1acSEMhSOuqTWAOhYtBFNGcGKKgPHz4MG4yzeaLValUanv/1ZxElpk3b57adWFO5XI5tiUnTJhgnEZtbuLXXJX3/3B+mYODA17WUyNmK+rZs6ee5YUpJpfL3d3dAWDTpk0catyzZw8u/zDVzx6HvhQrimiuWFiEvohZgsePH89Ssbb3X1XsvXv3sIvdVAu8cAo0m7lp2txEmlNb+qZ2qgqFjmPsu3RyctJRRvhbJ0+eBACjF3hpMzg3N9fR0REArl69qq2MpK8TzZk+fMwuU+z3mdb2/qs6iR9xJlzg1bZtW8xLrmqVQcf6uMkINOKjValUnjt3DvmRGbFlBJrwAB03eoGXDsv79OkDAKZq4OswjJNbRHOcwMhKyB9//IE/0e/evWMlSL+PVkPXzLI0SbM67t01dOhQzVt6XhGA5pRKJTZw2Exj1NMdPYvl5eWVK1euKMU5mwVe2nRt2LABANq2bautgKSvE82ZPnyYKLhly5bGmXLu3LkK//7hVE9HR8d/L1R4+PChqljcX8LOzs64IU5VUcYdZ2RkYCvp+vXrBkkwyE1Vyca15pRKJaYVqFmzpqo0Ex7jDrYsF3hpsx8HcMuWLatnXhxtcsR5nWjO9HEZM2YMABg9zhUXF6fW/aR6ev/+fVUPx44da8IFXkqlMjo6GudDqFqlz7FBbqoKNJrmIiIiMKexqjQTHnfp0oWTBV7FulBYWIiz03///fdiC0j6ItGc6cNXr149zWkQpjeLHwtweqCrqys/4rmUevz4cfzBMNVCES6d0UMWbv2zceNGPcpKrAjRnIkDlpOTg+sBRJ4SgyuYAgMDAaBhw4ZcCeRPjkwmQ5o7cOAAf1rEI3n27Nn6Z6wSj9n6WEI0pw9KPJbBbEhGT5Tl0TJ+RON8tDFjxvAjnmOp+B1n9Pw+jq3hWRyu+goICOBZjwnEE82ZAHRVlbgMW2zTUFUt5PBYLpdj+2j37t0ciuVPFObXbdKkCX8qxCP52bNn2G2qulROPOaxsYRojg16HNQdNWoUAMyfP58DWaIXgU1XAMjNzRW9sX8biIk/K1asKAlr2RtZoUIFAEhKSmIvSlQSiOZMHA7MjxgdHW1iOwRRP2PGDABwcHAQRBsHStavXw8A1tbWHMiSgoiGDRsCwP79+6VgrAE2Es0ZABYfRXGyblxcHB/CxSazdevWAODj4yM2w7TZ8+TJE/zKvn37trYy5nQd10J8++235uQUbWBo4mgqFApMya02u83EZvGmHru6uM2uwZux/wjGTXmk0pnIEo1p06YBgPml2KTWHMsHg1X1V69eYWPh7du3rARJpLKnpycAhIeHS8Tev820tbUFgPXr10vIZqNN/eabbwCgX79+RksQZ0WiOVPG5fbt27hdoSmNEFB3lSpVAEA8q0T1cd3e3r5oHyKuUvXqo9GEZXA9WevWrU1oAx+qieb4QFVfmadPnwYAf39/fStIvBxussN+PyohYcCJfhEREUIqNZUufCC52mXCVF5o6iWa08REuCuHDh0CgEaNGgmn0qSaMOdHZGSkSa0wTDnuZPrZZ58ZVk2apXELzRo1akjTfK1WE81phUaAGzjv3EJmnyqVSkwavHr1ak6wlcvlDx48uHXr1pUrV86ePRsXF5eQkHD9+vXbt2+/fPmSExVKpbJGjRpFU8l69OjBlUAxy7l69SoAmN+aHKI5Uz51+/btA4BmzZqZ0ggBdePuotu2bTNIZ35+/u7du+fNm9e3b9+mTZt6e3s7OTnhyAAO4BT7r5WVlb29feXKlT/88MP27duPHDlyxYoVRkx89fPzK9qjo127dgbZLNHC165dw2T9ErVfm9lEc9qQEeL63r17AaBFixZCKBOBDuSjkydPlmhLSkrKwoULW7Zs6eLiUiyLGX3R1tbW09OzT58+27Zt0yf1SP369QHAhMmWS8SKwwI3btwoGlauWrUqhzLFIIpozpRR2L17NwAw+8Ob0hT+dTMJP7SlHU9PT584caKfnx/OJVQjMkdHx2rVqgUGBnbp0mXcuHFr1qyJj4/PzMzU3CRIJpM9ePBg7969CxcuHDRoUEhIiK+vr6urK34yq4l1dnZu2bLl1q1bNeUgJCEhIUVpssxyQbtmzDG5ZuXKlTVvSfoK0Zwpw7dz507ON6MzpT86dRcUFCDF3Lp1S7VgVlbWnDlzPDw81AjIzs7Ox8dnwIABu3fvLigoUK1i9PGjR4+++uqr1q1b4+JNVY12dnYhISGa+cdbtWoFALVr1zZaqYQq3rp1CwDMbw0v0ZwpH8Lt27cDQJs2bUxphIC6kVbwozU/P/+rr76qWbMmLjPAW7a2tg0bNpw3b54Ai6tkMtnevXsHDRrk5uamynf29vadOnWKj49HYCzqoxUnckoi6alBjy3RnEFwcVwY++aaNm3KsVyxisMhiGXLlnXo0AGPkV+sra0bNGgQHR2t7cuRb4eePHkyduzYypUrq/Jd0Sy/BQsW+Pj4AECHDh34tkEM8nEIgvrm9IwF6FlO/2I88bH+BvBREjeg8fLy4kO4CGWq9Y5ZWVl9+OGHq1at4uqblL3L9+7dGzx4sOa4R/fu3dkLF78E3Ba9Xr164jfVIAt5Yg+iOb2ikJKSAgClS5c2193OGRTOnTvn7+/PtJXs7e3HjBkj5vSNCQkJwcHBjMG4Rk0qafIY2A09+PHHHwGgS5cuhlYUeXmiOVMGKC8vD1+kzMxMU9rBp+6LFy9iYhKGMjw8PEz1cWqoo6mpqWpdh0OGDNFnGoqhikRSfsmSJQDAZgtdkTiiZgbRnBogQp86OTkBgAA97kI7plTKZLLevXsz7Obq6orjm0bvSCu8C0qlEmkuICCA6UwsU6aMueZlmjBhAgDMmTPHJFDzp5Rojj9s9ZKMn3KnTp3Sq7R0Ch06dAi3iAeAcuXKff/990qlsm3btgDg5+cnFT+ysrKQpu/du5eRkREeHs6wdkhISFZWllQc0dPOXr16AQBXq/H0VCpAMaI5AUDWpQIT6v6///f/dBWS1L3c3Nz27dszdNCvXz+ZTIYefPbZZ0VvkYTmK5w8eRIdYb6yExMTq1WrhhdLlSoVFRUlqeCUYGyLFi3McstgorkSAs/37U8//RQAFi9ezLciYeRtYXL0AAAgAElEQVRv2bIFE7QBQKVKlRISElT1btq0CfeOYlhD9a4IjyMiIgDA0dFR1Ta5XB4REcH02dWrVy8tLU21gHSPkcEvXLggXReKtZxorlhYhLu4cuVKADCD+QovX75s1KgRNnOsrKzGjh2ryWUvX77EAleuXBEOYhaamjdvri0h4L1793BKXdGvlI2NzVdffcVCjyiq4sYX1tbWOTk5ojCIOyOI5rjD0ihJv/32GwC4u7sbVVsslW7evFmmTBmkMA8PD7XlXKpWli5dmsMNG4cMGYJKNf/lZDy0YsWKupOGL1myxMbGBrV36dJFk9lVfRf58cGDB8119S7RnImfvaysLPz8SU9PN7Epxqrfu3cvvupWVlYlDtJ98MEHHK5vQ5qrWbNmC40/9lOO5XI5hmbTpk06sElLS2OmBPr5+Ul3bl1kZCQADBkyRIezEr1FNGf6wNWqVaso1c+RI0dMb4rhFuBMKwCws7OLjY0tUUC3bt04zGiGNLd58+YS9RpRAN8NAMjIyCixOo5R4s4eKSkpJZYXYYGwsDCzHGalDQxF8bANHDiwaM/jRYsWicIaQ4zATekBwMnJ6c6dO/pUXbVqFXZm6VO4xDK80hy2bkqXLl2iGVgAywNAqVKlpDhDqGrVqgCgNmqkp+8iL0atOdMHCHeN69atm+lN0duCgoKCBg0aYJ+Uj4+P/jPIUlNTsZaetKjbIl5pDmf5eXt767ZB9e6OHTuY7/e1a9eq3hL5MTP+IN2Pbh0IE83pAEegW2fPnsUkX1LpwE5PT8etCDF1h6FmY9ZMTvY8RpoLDQ3t1q1bmzZt+vbtu3r16tevX3MSOVyg0rt3b4OkXb9+HXf2AYCxY8caVNeEhXfs2AEAdevWNaEN/KkmmuMPW30lv3v3DnfJu3jxor51TFcuOzvb1dUVW2TGUVXjxo0BwNPTk70TSHNoDPOvi4vL0aNHWQpPTk5GgefOnTNUVEZGRvXq1bH6xIkTDa1ukvKDBw8GgGnTpplEO99Kieb4Rlgv+bj2c/78+XqVNl0hmUzm6emJL7DRG9GvX78eJbDPULJo0aKlS5cmJSW9efMmOzv7+PHjTZo0waQvLKfmDR8+HAAcHByMA1smkwUEBKCby5cvN06IYLUKCwtxn8a4uDjBlAqpiGhOSLS16tq8eTMA1K9fX2sJEdyQy+VMfxybXegLCgpwGTwfU2oLCgqwtdi2bVs2mGF/PJv95wsKCtzd3ZHpYmJi2BjDd90LFy4AQPny5d+9e8e3LpPIJ5ozCezqSp8/f45v/l9//aV+TzTnXbt2xZd2zJgxLI3CiWZ16tRhKafY6seOHSsauba2tn716lWxBUq8mJGRgZ7u2LGjxMI6CmRlZRWlIMb1bWIee502bRoA9O3bV4cvkr5FNCeW8OG4nmg/cEaOHIlvflhYGHvIFixYgEzErOpnL5OR8ObNGzT16tWrzEWDDmbPng0Atra2ho6uaGpJTU11cHBAadq2NNOsJeQVhUKBHRHmml2K5s0J+TiVoOuHH34AgEaNGpVQzhS3Fy5ciMTRsGFDTvRnZmaiwJ9++okTgapC8vPzUbjRQzq+vr4AwFWu8KSkJNw828HB4cmTJ6qmiuH4ypUrmJ7ALKeSIMLUmhPDk/a3Denp6Tjlyoid4Xn14aeffkLW8Pb25rDxhftpcUUlqghcvXoVDX78+LHqdT2P09PTcY3XypUr9axSYrHjx4+jTBcXF7GxyZgxY8z7i5VacyU+n4IW6NOnDwCMGDFCUK06lT148ADJt0KFCty+n4sXL0YyevTokU4TDL7Zv39/bWlF9JGFSztsbW055HSlUrllyxb0t1mzZvqYIUyZV69e4Sw/cx1jRRipNSfM46SXFpwn7ODg8OLFC70q8FxILpfXqFED+5U4JyOZTIbzhHv06GGcH8ePH581a5bqAtLXr19//vnnyCbbtm0zQixjVa9evYyorrsKZq8DgBUrVuguKdhdzAMWGBho3psuEc0J9kSVrEihUNSrV69outayZctKLs1/CUz2CwDR0dF8aMNml62trXHZRPbt24eM5ubm1qhRo3r16iFvWllZRUZGGmcw0wvJUycapmmwtrZOTk42zkIOaxUWFnp7ewPAxo0bORQrQlFEc+IKSnR0dBGteHh4cPvFZISTx48fRxLp1KmTEdX1qcL0gs2ePVuf8mplHj58OHfu3LZt23p4eDg4ONjb23t7ew8ePNjokQelUomb8gQHB6vp4uo0PT0dubhatWrsh3FZWnXgwAHMWc9tdwRLq/ioTjTHB6rGy8zPz8dUjnv27DFeCuuaMpkM1585OzvzSri4aMHZ2Zm1yRwI2L9/PzJ7fHw8B+K0iNi+fTtqGTdunJYiAl1u164dAMyYMUMgfaZTQzRnOuy1aMZJW82bNzdhdwmz8eDZs2e1mMnN5YsXL+I7z3IiLifW4KTl6tWrcyJNhxCcI2llZWXCmXQ3btzAqYsPHjzQYap53CKaE10cHz9+jLvG7N+/3yTGxcfHI/UIMy3ew8MDAGrUqGESZxmlDOGuWbOGucjTQW5uLobYzc2NJxUliu3YsaPZzyNhQCCaY6AQ0QE26Pz8/EyyxhD7p5ycnHj9XGXg3rVrF7Kq7lzkTHmeDnD/mvLlywvTZbZt2zb0usS08nz4e/ToUUz4LObFhRw6TjTHIZicicrKysKMEQK0LNSMxuy+AHDy5Em1W/yd1qxZE5eOC0Mxmo4w/WU8jSlralQqlZhioHTp0sL8nDA2MNlTIiIimIvmfUA0J9L4rlu3DgAqVKjAVZJIffyUy+WYSzIgIECf8lyVwfVGpsp3JpfLXVxccICbK4/0kZOSkoINOoFz0m3YsAH3rDA6tYE+3omqDNGcqMLxP2NkMhn2iAs5ELZs2TJ88S5fvvw/U94/UigUZ8+enTZtWpMmTZycnOzs7KpVq9azZ8/Tp0+/X/Cfs4SEhPDw8IoVK9rb29euXXvRokXFbi0YEhKCe0QIv8PZlClT0Gt9Bljv37+PhbX9+9tvvxWLQ7EX27Rpg3tHGDdzsFiZui++efMGMz9/++23ukua012iOfFG89ChQ5ghUpgOFLlcXrZsWQAICgrSAcrJkyfxDbe2tvbz86tfvz7WAoB58+apVYyJicG1Ym5ubvXr17ezs8P0BJoTtTIyMrBk8+bN1YTwepqWloYpsFq1aqWPorS0NI29Ev++gBsz2tvbG9T6Tk1NxbWuo0eP1kc7+zJz584FAB8fH8GIlb3N7CUQzbHHkC8JRe0mnNkUEhJSWFjIl5p/5TILAHTnDjhx4oSvr++6deuYT56CggIcMwGAQ4cO/StPef/+fdx8evny5Tg55sGDB7gMYPz48Uwx5mDWrFlIoELu5dioUSNczfby5UvGEiMOcHu2Tz75xNC6OOJpa2tbbCPXUGm6y1++fBlzpZh2VqZuI/m4SzTHB6qcyUxJScG2Eh+JdlWtlMvluIS7xFRLWVlZxXaZd+nSBQDCw8MZsePGjSvaEK9jx47MFaVSef78eRzje/bsmep1pVIpl8tx4MXR0ZF9/nQ14cWeMuMtLNPTZ2dnlylTRo3li9WoeTEtLQ0bdJ999pnmXQ6v5OTk+Pn5AUCfPn1MOCWTQ4/0F0U0pz9WpimJ+dNtbW0TExP5s4Bpjt2+fds4LbgNo7+/P1ZXKBTVqlUDAM15v9jnGBUVpano4sWL+M43aNBA8y63V5KTk/FztWbNmiwlY/aRSpUqFfsDUKJw3AfaxsaGV3IfO3YsAFSvXp1lu7VEd0RYgGhOhEF5zySFQtGzZ0/MLKTZpfVeUWNP5HI5zlZl0y+2dOlS1e0sHjx4gF+gmknfcDeZYcOGFWvvnDlzsCLLFlaxwpmLcrm8cuXK2P3PftCjQ4cOAPD5558z8g06yMjIQMIdOHCgQRX1L/zrr78iqidOnNC/ltmUJJqTQCgzMjKwZTRhwgQ+zGUSZ967d884+QqFon79+gDAWHjixAkcP9H8Pvryyy8BICQkRJsuTNNiZWWlY8BXW109r3fr1g1f+127dulZRVuxp0+fIkmxsTY8PBxT+GrTwub68+fPcXTVuA0n2agWSV2iOZEEogQzYmNj8bVU7eMvoY7et4OCglhunBoVFYUtI4Yod+7cCQBVqlTRtAKnBOrY7yYrKwv3T3BycuJjQJDJcNmvXz9N8wy98vXXXwNArVq1DK2oWv7WrVsYX86HX+RyOX4UBwQECDDKoeqUeI6J5sQTixIsmThxIgCUK1eO2/Xe+fn52B1mdI62xMRE/OZV3a/n559/1rZS9ccff8Q5DTocZtJA6TnPQ4cotVuPHj3C0cbq1atzsugCfyTY7OiIFuLwi45Grpojep7i+HWpUqVu3LihZxXzK0Y0J5mYFhQUtGrVCgC8vLyeP3/Old1LlizBHfaM6/hLSUnBD+oBAwaofp+yac2ha9hlrvohzN7lrKwsV1dXnIesmnbYaMm///47osc+zwf6y8l2Yow7TLt169atzEULPCCak1LQX7x4gSvMmzdvnpeXx4npOK9VxyekDi1paWloT2hoqFqWATZ9c4zGunXr4qfc4sWLmYtGH6juD83VjmLTp08HAE6anOnp6egsV7l84+LiMIWnSbIDGB0mPioSzfGBKo8yb9++jTsch4eHGzd9QdU45tVav3696nV9jl++fFmnTh18yTU51+iRVlXVMpkMtxAFACMsVBUll8txIkvRwAhXkxDlcrm7uzsAcJVbxcvLCwACAwNVLTfuOCkpCROj9uzZk5Nvc+PMEEktojmRBMIAM86cOYOrC0aOHKn6nWiAiH+LTpgwwbh9l7OzszHxb6NGjd68efOvvP/9r1Aoqlataui8uf/V//coOzsbO62srKzY7JfcvHlzbCtxmJYD170ZusDrX8+K+R8XolhZWRnXgcBIvH//PvYkhISEWOywA4MGbWCoCoWUjvfu3YuTGEaNGsVmHRjOHWvRooVBzr99+xbz3wYEBOiYa4qdTdpWQaSlpempNCMjo1y5cpjq1rh99nC6BgAMGjRIT6X6FBsyZAgAGLHAS5twZjho4cKF2sqUeP3PP//ETKUBAQHMgrwSa5l3AWrNSTW+0dHROELar18/tX4xPV1KTU3FBo5Bk1QKCwu7d++OQ6VPnz7VoSslJQX7hjTXtI4dO1ZHRc1bKSkpOJhra2ubkJCgWUDHlUGDBqGb3O7dk5eXh+RrEHo67MRbgYGBAODr61tiyWILJCUl4U+Xn58f53tOFqtREheJ5iQRpuKN3LFjB+b8CA0N1ewdK76OylVMu2Rra6tyreRDJu1tzZo1NXN19O7dW1XEli1bsNWpmqEkODg4JydHtZg+x9evX8eJINbW1jExMfpUkcvlmN+paLVpcHAwt11UiIPRC7y02Y/frXZ2dtoK6LiekJCA/bb16tVjv7RDhyLJ3SKak1zI3jP4yJEjOJP2o48+ysrKeu9eSSft27fXNrVNR1VcY4vtI81/PT091eqeP38+LCzM1dW1dOnSRelJFixYYHRv0cWLF7FTEgBKnOWXnZ2Nm5ACQIsWLbjlOKVSiakKjF7gpYYSc3rnzh1E1dD5LidOnMDkCy1atMjMzGQE0gH1zZnDM3DmzBkcUwsODjboNxyHCLp16yYhFFJTU3HiGwDoWMOQkpKC7RoAGDx4sIQcVCqV2Gg1aL7x7t27sX+gY8eORrSUpYWPEdZSa84I0ERXJTExEXd3rV69+pkzZ/SxTy6X4+cky4ka+ujitkxubi7uHQEADRs21JxVc/bsWXzni9afLV26lFvtAkjDOTRt2rTRR5dMJpsxYwY2AHv37v327Vt9allaGaI5M4l4cnJy7dq1cX7/smXLSvxGO3fuHL4bOoZKRQuNXC7HL24AcHNzU+1rX7duHY7M2NjYsF+WbxIEMCFNpUqVStT++PFjpvNx8uTJbMbcS9Ql6QJEc5IO33vGZ2dnYw5bAPj44491TyaYPHkyfykx3jOLtxNmNZitre2mTZvy8/NxMRwA2NvbX7lyhTfN/AretGkTLiDT/Vt14sQJnFFYvnx5NjMK+XVGHNKJ5sQRB46sKEpmGRUVhf30Xl5eOlIDBQcHA4Bxa7w4MpYDMevXr8cdJLAZi+1Tb2/vJ0+ecCDdRCKysrLQEW2TBAsLCxcsWICN1qCgoLt375rIUsmoJZqTTKj0NzQxMRFXqhbtMDBz5sxi+6Rx1GLkyJH6ixVnyb/++gtn1SA1tG7dWpx2GmQVplxnkvep1r1+/XrTpk3R2ZEjRxoxkUhVmoUcE82ZZ6Bfv37du3dvfBk8PDz27dunuixMLpfjrcOHD0va/5MnT+LGsugO/tu2bVuWi6VMjgnmLAgODla15PXr1xMnTsSBo7Jly/7888+qd+lYBwJEczrAkfytAwcOMEvfQ0NDmY0Qb9++jYwgXTp48OAB0/sOAL1797506RIuAMC+ufnz5+vu2xJzdHEUwt3dHY1UKBTbtm3DCUAA0LdvX83U82J2x+S2Ec2ZPAT8GpCbmztnzhz8rLO3t1+0aFFOTs6OHTuwk5tf3fxIf/ToEa6oRaZ2cXFhtpGWy+Xjxo3DTisAKFOmzNKlS6VIdhEREZhCValU3rp1i/G3Zs2ax48f5wdXc5ZKNGfO0WV8++OPP3DLVwCoVKnSRx99BAAODg5MAUkcpKend+7cmWGx0qVLT5s2TZPFkpOTcfdV5MHy5cuvXLlSEg4yRq5fvx5TFfTp0wf9tbe3X7x4MU2LYyAy6IBoziC4JFxYoVD88ssvODSB73/RQoLk5GRJuPTy5ctu3boxBGdnZzdhwgTd20QkJSXhLjzorLOz87p16yThrFKpZHbmRuN79epl6NovqXgqjJ1Ec8LgLBYt796927x5c4UKFRim+/DDD2NjY8Vin4Yd8fHx7du3x353TI03cuRI/VfFXrlyBXN/or+urq5TpkwR7YzogoKCiIgI3IAcDe7cuXNSUpIGKnTBMASI5gzDyzxKT506laE5PHBxcenXr9/169dF4mBycnLfvn0x0xFaaGNjM3jwYOPGTBISEpjUwSjN19d32bJlutuDgkEhk8mioqKCg4OZOYBMdO7fvy+YGWasiGjOjIOr1bWRI0cWDUEsXLjw22+/xR08mfeqXLly4eHhZ8+e1VqZzxsZGRkTJkxgBkzRKhcXl+HDhxuaf0XTzLi4uKZNm6pSibW1dYMGDbZu3arZwadZnfMr+fn5K1asCAwMZNqqOC7UsmXLpKQkHFcVzw8P5+4LKZBoTki0xaKrT58+ALB69Wo0KD4+PjQ0VPVbCQcoOnTocPjwYb4pIDc3d9u2bf3792fmviC7OTg4hIeHJyYmcouaTCZbs2ZN7dq1mZ4+3GG2cePG06dPF2CJWGZm5oIFC/z8/FQNwH1yp0+fnpGRgf5i8/P06dPcum+Z0ojmLDHuvXr1AgDNLvnLly/36tVLbcKtlZWVk5NT3bp1hwwZsmXLFvYdW0UL78+dOzd58uTg4GDVz1JkN1tb25YtW3KbkrfYGGdnZ8+ZM6dGjRpMSxYPrK2tq1ev3qVLl1WrVhmU2KpYLUqlMikpafHixZ07d/b09GTy5aEuKyurmjVrRkZGarZVAwICAODUqVPaxNJ1/REgmtMfK/Mp2b9/fwBYtWqVNpdu3bo1aNAgTO6kxgLY9vHw8Gjfvn3//v3Hjh07Z86clStXbtmyJTY29vr162lpaTKZLD09PTEx8dChQ0Xb8UVGRg4aNKh169b+/v6VKlVS/UZjhLu6urZs2XL9+vV8Nx41XX706NGYMWP8/f0xDztjEh7Y29vXqFGjQYMGoaGh48aNW7FiRUxMzKlTp5KTk3P/7+/evXvnzp3bu3dvVFTU0qVLp02bNnz48F69ejVs2NDV1VWtyYYyra2t69Sps3z5ch1jKZhsylS9B5ooSfoK0Zykw2ek8bhXy/Lly0usn5WVtX379hEjRjRo0MDFxaXYl1aNF/Q8dXR0DAgIGDFixOHDhzVzxpVoGE8F0tPTV69e3bVrVzc3N9VePD2d0lasVKlSNWrU6NChQ2Rk5OXLl/WhcvyEv3TpEk+eWpRYojmLCvc/zuIQhEH5abGmXC6/cuXKggULOnbs6OPjU61aNRcXl6LFBqVKlSq2jWZlZWVjY+Pg4FC5cmV/f//WrVsPGjRo/fr17L98hQlbYmLirFmzunfv3qhRIy8vL2dnZx2e2tra2tvblytXrmLFiu7u7oGBgYMGDYqOjma62wyyGXcgpCEIg0DTVphoThsy5nx9/PjxAPDFF19w7qRcLk9PT7958+aTJ0/0abNwboBgAnNzc+/83192djYfSnFu43//+18+hFuaTKI5S4v43/5OmTIFAGbOnGmJzkvEZxycoVxynISLaI4TGCUmZObMmQAwefJkidltSebimGxqaqolOc2Xr0RzfCErZrlLly6V4pZXYoaUW9uys7NxNIO2IuQEWKI5TmCUmBDcSjkkJERidluMuTdv3iya8ePs7GwxHvPrKNEcv/iKU/qFCxeM2IhanL6YpVWHDh0CgPr165uld8I7RTQnPOam15iWlobpzESydt30iIjMgtWrVwNAjx49RGaXVM0hmpNq5NjYrVAocMb/vXv32MihujwhgNmDIyIieJJvaWKJ5iwt4v/4iyvDT548aaH+i9vtHj16qOZWELexErCOaE4CQeLDxC5dugDApk2b+BBOMlkigHmPBchfwNJOqVQnmpNKpDi2c+LEiQAwceJEjuWSONYIFBQUODg4SCiFPWuPeRdANMc7xOJUsH37dgBQ2wlUnKZamlUXL14EgAoVKqhurWtpIHDrL9Ect3hKRtqjR49wsPXNmzeSMdoyDF2xYgUAhIeHW4a7QnhJNCcEyuLUgal+Tpw4IU7zLNaq7t27A4A+abIsFiJDHSeaMxQx8yk/cOBAAIiMjDQfl6TviUKhwGymCQkJ0vdGLB4QzYklEsLb8cMPPwBAu3bthFdNGrUhkJycDAD29va087Q2iIy4TjRnBGhmUuX3338HgDJlyognea+ZIMvCjR9//LFoCwhabswCwmKqEs0VA4qFXJLL5Zi7MS4uzkJcFr+bvXv3BoC5c+eK31QJWUg0J6FgcW/q0KFDAWD8+PHciyaJhiOQm5vr6OgIAFevXjW8NtXQigDRnFZoLOHG4cOHAaBatWrmndBcKqHcs2cPAHh5edGMOW5DRjTHLZ4Sk/b27VvclTU+Pl5ippujuX379gWAqVOnmqNzpvSJaM6U6ItBN363jhgxQgzGWLINr1+/xrQxV65csWQc+PCdaI4PVKUkMy4uDgCcnJx0bI0sJX8kayuOsdauXZu+WDmPIdEc55BKTKBcLvfw8ACA7du3S8x08zL3o48+AoClS5eal1ui8IZoThRhMK0R8+fPB4AmTZpQO8JUgbh69SoA2NjYPHz40FQ2mLFeojkzDq6+rj179gy3y/vtt9/0rUPlOEXgk08+AYCBAwdyKpWE/YMA0Rw9Cn8jMGbMGADo3LkzwSE8Anfv3rW2ti7a/CEpKUl47ZagkWjOEqJcso/37t3DN+3GjRsll6YSnCIwevRoAOjatSunUknY/xAgmvsfFhZ+hJO2BgwYYOE4COx+Wloa9hjQ1EX+kCea4w9biUm+du0a9oKnpKRIzHQpmzt79mwAaNq0KY3/8BdGojn+sJWe5A4dOgDA4MGDRWh6SkrKhg0bRowYUbduXRsbmyJGXrx4sTY7ExISwsPDK1asaG9vX7t27UWLFolzVuDTp0/LlSsHAPv27dPmC11njwDRHHsMzUfCpUuX4P/+zp8/LzavJk2ahLYx/2qjuZiYGORBNze3+vXr29nZAUCjRo1yc3PF5hRmNm3cuDGtKeY1NERzvMIrPeHDhw8HgHr16hUWForK+sWLF4eFhS1atOjo0aO9evXS1pq7f/8+dnUtX74cPwMfPHhQq1YtESZiiY+PBwArKyta3cX3k0Y0xzfCEpP//PlzZ2dnAPj+++9Fa/qQIUO00dy4ceMAoGPHjqrGnz9/HgDs7OyePXumet2ExzKZLDAwEABGjRplQjMsRDXRnIUE2gA3161bh6tc09PTDagmYFFtNKdQKKpVqwYAO3bsUDPH39+/KOVUVFSU2nVTna5atQoAXF1dX7x4YSobLEcv0ZzlxFpfTwsLCxs0aAAAQ4cO1beOsOW00dyDBw+w5+7x48dqFuHH+LBhw9Sum+Q0LS2tfPnyoqJdk+AgmFKiOcGglpKihIQE5Atxbm+ojeZOnDgBAKVLl9acnPHll1+KZI8FhULRs2dPAGjYsKHYOkCl9IwaYivRnCFoWVLZsWPHAkDlypWfPn0qNr+10dzOnTsBoEqVKpoG45d4nTp1NG8JfGXNmjXYUUiZ0AVDnmhOMKglpigvL69u3boA0KZNG7E1OrTR3M8//wwANWrU0MQas7n5+Pho3hLySmJiYqlSpQBg1apVQuq1cF1Ecxb+AOhyPzk5uUyZMiLcslobzYm8NZeVleXj4wMA3bt31/ys1hUJuscOAaI5dviZe+2YmBic23Xq1Cnx+KqN5sTcN6dQKDDbkqen56tXr8QDpiVYQjRnCVFm5SOOUVapUiUtLY2VIO4qa6M5MY+0Yuegra3txYsXuUOCJOmFANGcXjBZcqHc3Nw6deoAQOPGjXNycsQAhTaaUygUVatWFeG8uRMnTuCas5UrV4oBQEuzgWjO0iJujL9//vmnq6srAISGhspkMmNEcFpHG80plUocINa2CsIkDdJr166VLVsWAPr160ddcpw+CPoKI5rTFykLL5eQkIDb6w0bNszk76oOmktJScGhTM01rWPHjhU+iH/99Rc2MNu0afP27VvhDZCERgwok5RB9YCT1DJEc5J4DERh5IEDBzDD8KRJk4RnunPnzlX49w8X5zs6Ov57oYLqTm1bZCMAAAoBSURBVDFbtmxBO1UzlAQHBwv/xf3o0SMvLy8ACAwMfP36tSiiKEojkOZq1qzZQuOvoKCAvclEc+wxtCAJmzdvxl/auXPnCuw27ier+juvenz//n1Ve86fPx8WFubq6lq6dOmi9CQLFizgpFGgqqLE42fPnvn5+QGAr6+vCKdYl2i/kAWQ5jZv3syTUqI5noA1W7Fr165FfpkxYwZlSdMW5gcPHtSuXRsAPDw8UlNTtRWj64gA0dw/TwJPfEzPmREIrFixApmuf//+1N+kCeD169cxUYqbm9vdu3c1C9AVNQSI5v4BhGhO7ckw7emWLVtsbW0BoHXr1pmZmaY1RlTaY2NjcVy1Tp06jx49EpVtojUGaS40NLRbt25t2rTp27fv6tWrOezN5Ik9gHNAeTKUczstR+Dx48dxH4OAgAD6LsO4R0dHY372tm3bcviWmv1DhTSn2tkKAC4uLkePHuXEd57Yg2iOk+iIXciNGzeqV68OANWrV7927ZrYzeXTPoVCsWDBAnxRP/30U07GB/m0V1yyFy1atHTp0qSkpDdv3mRnZx8/frxJkyaYU4uTDPJEc+KKt+SsefjwYUBAAD6Ra9asEX6iiRgQS0tL69y5M3LcnDlzLBMEbgNRUFDQuHFjAGjbti17yURz7DG0dAmZmZldu3bFl7xr167i2W9BmMAcOnSoUqVKAGBvb79x40ZhlFqClmPHjgGAtbU1+0wHRHOW8MDw7qNCoVizZg3O2q1cufLhw4d5VykCBXl5eePHj0d+r1u37q1bt0RglPmY8ObNG8SWff5RojnzeSxM7snNmzdxtyoAmDBhQl5enslN4s+AGzdu4Mw4AJgyZQpNrOEc6vz8fKQ59jldiOY4j45FC8zPz588eTI+nV5eXjt37jS/jqqXL19OnDgR59NUrVr12LFjFh1y3py/evUqPkiaGxgZqpNozlDEqHzJCMTGxrq5ueEz2rJlS04Gy0rWyn+Jd+/erVq1ysXFBV3r2bNnRkYG/2otVEP//v0BwN/fn73/RHPsMSQJxSBQtE4+MjLSwcEBGWHQoEGSniurUCgOHjyIa1RxKb449zwrJhKiv3T8+PFZs2alpKQwlr5+/frzzz/HJ2fbtm3MdaMPiOaMho4qlozAo0ePBg0ahM+rg4PD3Llznz9/XnI1MZVQKBRnzpxp164delGpUqWoqCix7QEkJsAMtmXfvn2IrZubW6NGjerVq4eptKysrCIjIw0WV1wForniUKFrnCJw6dKl5s2b46Nsb28/duxYSaz0LCws3Lt3b9OmTdHyUqVKzZgxg9Y2cPpo/C3s4cOHc+fObdu2rYeHh4ODg729vbe39+DBg9mPPDCmEs0xUNABjwgoFIrdu3c3bNgQKcPKyio0NPTIkSPizHGSkZGxbNkyb29vtLZ06dIjR47866+/eASIRPOJANEcn+iau+zbt2/PmzevYcOGVatWtbOzq1ChQqtWrZYvX66tY16hUMTFxTFziQHggw8+mD9//vXr18UwIJuTk7Nnz54BAwbgBEBcVjl37lxLm/Bsfo8t0Zz5xVQIj/Ly8qZMmYLL1G1tbb29vYODg6tUqYLNH2dn57Nnz+qw486dO1OmTHF2dsbyAODt7T116tTz588L377LzMzcunVrjx49mAETAGjQoMGPP/6Ym5urwwu6JRUEiOakEikR2Zmfn9+hQwcAcHJyWrFiRVZWFmNcYmLixx9/DAD67Ouam5uryS9Vq1YdPXp0TEzMnTt3+Gvi5ebmnjt37ptvvunUqRPOgEPC9fLyioiIuHTpEn+qGazoQDAEiOYEg9p8FPXr1w8A3N3dtS1v+uabb16+fKm/w/i1OHDgwPLlyzPtOwBwdnbu0KHDnDlz9u/f//jxYzYNvbdv3xblU9mwYcOIESOCgoKwHcroCggIEM+3s/64UUk9ESCa0xMoKvYPAjt37gQAGxub8+fPcw5KQUFBbGzspEmTmjVrxnSQMWRkZ2fn6enZvHnz3r17T5o0admyZVu3bt27d+/BgwePHj167Nixw4cP79+/f9euXVFRUV988cWIESO6dOkSFBRUsWJFRghzUK1atW7dui1btiw5OZlzR0igqBAgmhNVOMRujFwu9/HxAYDJkyfzbeu7d+8SExPXr18/bNiwwMBA3KyLISkjDsqXL9+uXbtZs2bt3buX/fohvt0n+RwiQDTHIZjmLwpnctrZ2Qm/VVVBQUFqampCQsKuXbu+++67GTNmfPrpp+3atWvevHnjxo0bNGgQFBTUsGHDpk2btmzZMiwsbPTo0QsXLty0adORI0eSkpIyMjKou838H1AtHhLNaQGGLheHwNChQwFAbU/74grSNUJARAgQzYkoGOI3Bb9Yly5dKn5TyUJCgEGAaI6Bgg5KRgAXG+7Zs6fkolSCEBANAkRzogmF6A3Jzc3Fjv+TJ0+K3lgykBD4HwJEc//Dgo50I6BQKHAm7b59+3SXpLuEgKgQIJoTVTjEbgzmQJ89e7bYDSX7CAEVBIjmVMCgw5IQWLhwIQBUrlz5xYsXxZa9cOHCnTt3ir1FFwkBUyFANGcq5CWpNzMz09PTEwDq16+vut+STCY7e/Zsv379rK2ttTGgJB0mo80CAaI5swijgE7897///eCDD3Asws3NrXHjxnXq1Clbtixe8fHxEdAWUkUI6IUA0ZxeMFEhVQRycnK+/fbbjz76qEKFCra2tuXKlQsICBg2bNihQ4doHz9VoOhYJAgQzYkkEGQGIUAI8IUA0RxfyJJcQoAQEAkCRHMiCQSZQQgQAnwhQDTHF7IklxAgBESCANGcSAJBZhAChABfCBDN8YUsySUECAGRIEA0J5JAkBmEACHAFwJEc3whS3IJAUJAJAgQzYkkEGQGIUAI8IUA0RxfyJJcQoAQEAkCRHMiCQSZQQgQAnwhQDTHF7IklxAgBESCANGcSAJBZhAChABfCBDN8YUsySUECAGRIEA0J5JAkBmEACHAFwISo7mYmJhE+iMECAFCwBAEYmJiACAxMZFbHgVuxSmVytTUVEdHR0xRS/8SAoQAIWAQAo6OjqmpqdzyEvc0h0xnCINTWUKAECAE/kGAc45TKpW80By3TEzSCAFCgBBggwDRHBv0qC4hQAhIAAGiOQkEiUwkBAgBNggQzbFBj+oSAoSABBAgmpNAkMhEQoAQYIMA0Rwb9KguIUAISAABojkJBIlMJAQIATYIEM2xQY/qEgKEgAQQIJqTQJDIREKAEGCDANEcG/SoLiFACEgAAaI5CQSJTCQECAE2CBDNsUGP6hIChIAEECCak0CQyERCgBBggwDRHBv0qC4hQAhIAAGiOQkEiUwkBAgBNggQzbFBj+oSAoSABBAgmpNAkMhEQoAQYIMA0Rwb9KguIUAISAABojkJBIlMJAQIATYI/H+EPNaiXs1cCQAAAABJRU5ErkJggg==;" vertex="1" parent="1">
          <mxGeometry x="390" y="112" width="418" height="328" as="geometry" />
        </mxCell>
      </root>
    </mxGraphModel>
  </diagram>
</mxfile>
